<?xml version="1.0" standalone="no"?>
<!DOCTYPE svg PUBLIC "-//W3C//DTD SVG 20010904//EN"
 "http://www.w3.org/TR/2001/REC-SVG-20010904/DTD/svg10.dtd">
<svg version="1.0" xmlns="http://www.w3.org/2000/svg"
 width="957.000000pt" height="357.000000pt" viewBox="0 0 957.000000 357.000000"
 preserveAspectRatio="xMidYMid meet">

<g transform="translate(0.000000,357.000000) scale(0.100000,-0.100000)"
fill="#000000" stroke="none">
<path d="M1223 3295 c-217 -67 -372 -335 -277 -479 34 -53 56 -56 391 -56 169
0 314 -4 322 -9 20 -13 0 -79 -32 -109 -22 -21 -26 -21 -498 -24 l-474 -3 -67
-33 c-93 -46 -176 -130 -224 -228 -34 -69 -39 -86 -39 -150 0 -78 13 -107 69
-148 l27 -21 2566 -3 c2433 -2 2565 -3 2560 -20 -2 -9 -106 -261 -231 -560
-124 -298 -226 -544 -226 -546 0 -4 92 20 159 40 17 5 22 4 17 -5 -10 -15
-110 -65 -162 -81 -35 -10 -45 -19 -57 -52 -15 -36 -15 -39 1 -34 9 3 67 19
127 36 l110 32 285 686 c157 377 286 691 288 699 3 11 -439 13 -2636 13 -1452
0 -2647 3 -2656 6 -9 3 -16 15 -16 27 0 26 36 101 57 119 13 10 116 14 492 18
l476 5 67 33 c203 100 322 369 210 475 -45 42 -87 47 -405 47 -238 0 -299 3
-303 13 -7 19 13 67 38 95 l21 22 398 0 397 0 35 83 c19 45 37 92 41 105 l7
22 -408 -1 c-308 0 -418 -4 -450 -14z"/>
<path d="M2147 2983 c-75 -181 -159 -382 -186 -448 l-50 -120 101 -3 c56 -1
104 1 108 5 4 4 34 72 66 151 l58 142 367 0 366 0 60 30 c159 80 282 270 271
421 -5 68 -27 105 -79 131 -31 16 -76 18 -490 18 l-457 0 -135 -327z m939 102
c8 -20 -24 -107 -52 -142 l-22 -28 -329 -2 c-180 -2 -333 -1 -339 1 -8 3 0 35
25 95 l36 91 338 0 c290 0 338 -2 343 -15z"/>
<path d="M3309 2869 c-101 -243 -186 -446 -187 -451 -2 -5 44 -7 103 -6 l107
3 184 444 c101 244 184 445 184 447 0 2 -47 4 -104 4 l-104 0 -183 -441z"/>
<path d="M4038 3291 c-129 -41 -235 -134 -291 -253 -78 -166 -167 -404 -167
-446 0 -84 51 -151 129 -172 25 -6 174 -9 402 -8 l363 3 42 100 42 100 -361 5
c-199 3 -368 9 -374 13 -7 5 -13 18 -13 31 0 36 148 378 175 406 l25 25 376 5
375 5 40 94 c21 52 39 98 39 103 0 4 -168 8 -372 7 -333 0 -379 -2 -430 -18z"/>
<path d="M4997 3298 c-3 -7 -85 -204 -182 -438 -97 -234 -179 -431 -182 -437
-4 -10 95 -13 474 -13 l480 0 39 97 c21 54 41 101 42 105 2 5 -164 8 -368 8
-350 0 -372 1 -365 18 4 9 16 41 27 69 l21 53 351 2 350 3 43 100 42 100 -349
3 -349 2 27 65 27 65 375 0 375 0 27 68 c14 37 33 84 42 105 l16 37 -479 0
c-374 0 -480 -3 -484 -12z"/>
<path d="M5961 2938 c-85 -205 -169 -408 -187 -450 l-33 -78 107 0 107 1 141
342 141 342 339 0 c322 0 339 -1 342 -19 5 -23 -22 -92 -48 -126 l-19 -25
-289 -5 -290 -5 118 -250 118 -250 145 -3 146 -3 -70 145 c-38 80 -69 147 -69
149 0 3 37 7 83 9 108 4 161 30 253 123 136 137 187 309 123 413 -37 62 -41
62 -546 62 l-458 0 -154 -372z"/>
<path d="M310 1393 c-95 -230 -179 -433 -187 -451 l-14 -33 107 3 107 3 111
267 c60 147 112 265 115 262 4 -3 38 -118 77 -255 39 -138 74 -250 78 -250 4
-1 130 109 279 243 330 296 313 283 286 221 -54 -127 -199 -480 -199 -486 0
-4 46 -7 103 -7 l103 0 131 318 c73 174 157 377 187 450 l55 132 -112 -1 -112
0 -284 -255 c-162 -146 -287 -250 -291 -244 -3 5 -38 120 -76 255 l-69 245
-111 0 -111 0 -173 -417z"/>
<path d="M1954 1792 c-87 -30 -177 -108 -237 -204 -9 -14 -75 -170 -148 -345
-72 -175 -133 -322 -136 -326 -2 -4 44 -6 103 -5 l108 3 137 330 c76 181 146
335 155 342 14 10 93 13 331 13 275 0 314 -2 320 -16 3 -8 -8 -50 -24 -92
l-30 -77 -278 -5 -279 -5 -42 -102 -43 -103 276 0 c216 0 274 -3 270 -12 -3
-7 -30 -73 -60 -146 l-56 -133 107 3 107 3 137 330 c154 372 164 408 127 482
-42 83 -41 83 -444 83 -307 -1 -356 -3 -401 -18z"/>
<path d="M3238 1791 c-32 -11 -80 -33 -107 -50 -58 -37 -141 -123 -166 -171
-47 -91 -175 -417 -181 -459 -8 -59 19 -128 62 -158 55 -39 96 -43 470 -43
l361 0 37 93 c21 50 41 98 43 105 4 9 -70 12 -352 12 -226 0 -363 4 -376 10
-10 6 -19 19 -19 29 0 33 151 385 176 411 l24 25 377 5 377 5 42 103 43 102
-377 -1 c-337 0 -383 -2 -434 -18z"/>
<path d="M4073 1493 c-73 -175 -157 -378 -187 -451 l-55 -133 107 3 107 3 70
170 71 170 341 3 342 2 -65 -157 c-37 -87 -68 -166 -71 -175 -5 -16 4 -18 100
-18 74 0 106 4 110 13 3 6 85 203 182 437 97 234 179 431 182 438 4 10 -18 12
-103 10 l-108 -3 -70 -167 -69 -168 -339 0 c-186 0 -338 3 -338 6 0 3 29 77
65 163 36 87 65 160 65 164 0 4 -46 7 -103 7 l-103 0 -131 -317z"/>
<path d="M5656 1386 c-97 -234 -180 -437 -186 -451 l-10 -26 106 3 106 3 119
285 c65 157 121 291 126 298 5 9 56 -89 149 -285 l140 -298 106 -3 105 -3 177
426 c97 234 181 436 186 450 l10 26 -106 -3 -106 -3 -121 -292 c-66 -160 -124
-290 -127 -288 -3 2 -68 134 -145 294 l-140 291 -106 0 -106 0 -177 -424z"/>
<path d="M6762 1367 c-100 -243 -182 -445 -182 -450 0 -4 214 -6 476 -5 l475
3 40 94 c21 52 39 98 39 103 0 4 -166 8 -369 8 l-370 0 28 68 28 67 350 3 351
2 41 99 c22 55 41 102 41 105 0 3 -155 6 -345 6 -190 0 -345 1 -345 3 0 2 11
30 24 63 l24 59 375 3 375 2 41 99 c22 55 41 102 41 105 0 3 -215 6 -477 6
l-478 0 -183 -443z"/>
<path d="M5225 789 c-22 -10 -80 -30 -128 -45 -81 -25 -89 -30 -103 -62 -8
-19 -12 -37 -10 -40 3 -2 58 11 123 29 l118 34 23 49 c13 26 22 49 20 51 -2 1
-21 -6 -43 -16z"/>
<path d="M5488 696 c-61 -22 -89 -45 -109 -91 -21 -46 -18 -85 7 -106 11 -9 4
-17 -34 -42 -88 -60 -121 -171 -66 -222 47 -43 140 -45 230 -6 44 20 45 20 57
1 10 -17 23 -20 84 -20 40 0 73 2 73 5 0 3 -18 30 -39 59 l-39 53 28 29 c16
16 41 55 54 86 l26 58 -58 0 -58 0 -18 -56 -17 -55 -30 40 c-16 23 -29 43 -29
45 0 2 24 18 54 34 96 55 120 149 47 187 -36 18 -113 19 -163 1z m80 -93 c2
-13 -8 -34 -26 -54 l-29 -33 -16 30 c-15 30 -9 58 17 77 20 14 51 3 54 -20z
m-84 -241 c21 -29 36 -55 33 -58 -3 -3 -24 -8 -46 -11 -47 -6 -81 15 -81 51 0
28 39 91 49 80 4 -5 25 -33 45 -62z"/>
<path d="M6650 693 c-130 -45 -226 -175 -238 -321 -4 -51 -1 -72 13 -98 38
-71 151 -93 262 -53 43 16 74 37 119 83 78 79 108 150 109 253 0 66 -2 74 -29
102 -49 51 -147 65 -236 34z m121 -94 c43 -43 5 -192 -68 -265 -57 -58 -134
-57 -159 1 -30 72 43 237 120 271 45 19 83 17 107 -7z"/>
<path d="M7170 693 c-130 -45 -226 -175 -238 -321 -6 -83 13 -123 75 -153 38
-18 56 -21 113 -16 142 12 248 101 300 251 39 115 18 199 -60 238 -43 22 -129
23 -190 1z m121 -94 c18 -18 21 -30 16 -78 -12 -140 -118 -254 -207 -226 -94
30 -17 274 100 318 33 12 71 6 91 -14z"/>
<path d="M6071 678 c-27 -72 -29 -68 48 -68 39 0 71 -2 71 -4 0 -2 -29 -88
-65 -191 -36 -102 -65 -191 -65 -196 0 -5 27 -9 59 -9 53 0 60 2 66 23 4 12
34 102 68 200 l60 177 73 0 73 0 10 38 c6 20 11 40 11 45 0 4 -90 7 -200 7
-199 0 -201 0 -209 -22z"/>
<path d="M7569 673 c-6 -16 -44 -126 -84 -245 l-73 -218 159 0 c177 0 160 -6
183 68 7 22 6 22 -88 22 -60 0 -96 4 -96 10 0 6 29 96 64 200 l65 190 -60 0
c-56 0 -60 -2 -70 -27z"/>
<path d="M8149 673 c-6 -16 -44 -126 -84 -245 l-73 -218 162 0 163 0 11 39 c7
21 12 41 12 45 0 3 -43 6 -95 6 -69 0 -95 3 -95 13 0 6 29 96 65 200 l64 187
-60 0 c-56 0 -60 -2 -70 -27z"/>
<path d="M8481 678 c-27 -72 -29 -68 48 -68 39 0 71 -2 71 -3 0 -2 -29 -89
-65 -192 -36 -104 -65 -192 -65 -197 0 -4 26 -8 59 -8 l58 0 68 200 67 200 73
0 73 0 15 45 16 45 -205 0 c-203 0 -205 0 -213 -22z"/>
<path d="M8945 689 c-2 -8 -41 -119 -85 -248 l-80 -233 138 4 c158 5 200 18
278 90 58 53 88 99 108 168 21 70 20 95 -4 145 -32 67 -64 79 -217 83 -106 4
-134 2 -138 -9z m199 -90 c82 -38 34 -220 -73 -276 -43 -22 -131 -32 -131 -15
0 6 78 244 95 290 6 15 75 16 109 1z"/>
<path d="M5169 655 c-14 -8 -69 -28 -122 -45 -90 -29 -96 -32 -110 -68 -8 -20
-11 -38 -6 -40 5 -2 60 11 123 28 l115 32 16 41 c10 23 19 48 22 55 7 16 -5
15 -38 -3z"/>
<path d="M5105 510 c-23 -10 -80 -30 -127 -45 -82 -27 -87 -31 -101 -67 -9
-21 -14 -38 -13 -38 5 0 250 71 251 73 7 11 35 90 33 92 -2 1 -21 -5 -43 -15z"/>
<path d="M5075 387 c-11 -6 -69 -27 -128 -47 -100 -32 -110 -38 -122 -68 l-14
-32 51 0 c56 0 166 26 185 44 10 9 57 117 50 116 -1 0 -11 -6 -22 -13z"/>
<path d="M9314 288 c-9 -29 -19 -59 -22 -65 -3 -10 12 -13 55 -13 l59 0 17 58
c9 32 17 61 17 65 0 4 -24 7 -54 7 l-54 0 -18 -52z"/>
</g>
</svg>
